<!DOCTYPE svg PUBLIC "-//W3C//DTD SVG 1.1//EN" "http://www.w3.org/Graphics/SVG/1.1/DTD/svg11.dtd">
<!-- Uploaded to: SVG Repo, www.svgrepo.com, Transformed by: SVG Repo Mixer Tools -->
<svg width="64px" height="64px" viewBox="0 0 1024 1024" class="icon" xmlns="http://www.w3.org/2000/svg" fill="#c7c7c7" stroke="#c7c7c7">
<g id="SVGRepo_bgCarrier" stroke-width="0"/>
<g id="SVGRepo_tracerCarrier" stroke-linecap="round" stroke-linejoin="round"/>
<g id="SVGRepo_iconCarrier">
<path fill="#cbc8c8" d="M512 896a384 384 0 100-768 384 384 0 000 768zm0 64a448 448 0 110-896 448 448 0 010 896z"/>
<path fill="#cbc8c8" d="M192 512a320 320 0 11640 0 32 32 0 11-64 0 256 256 0 10-512 0 32 32 0 01-64 0z"/>
<path fill="#cbc8c8" d="M570.432 627.84A96 96 0 11509.568 608l60.992-187.776A32 32 0 11631.424 440l-60.992 187.776zM502.08 734.464a32 32 0 1019.84-60.928 32 32 0 00-19.84 60.928z"/>
</g>
</svg>